<svg width="32" height="32" viewBox="0 0 32 32" fill="none" xmlns="http://www.w3.org/2000/svg">
<path d="M16 18.6667C18.2091 18.6667 20 16.8759 20 14.6667C20 12.4576 18.2091 10.6667 16 10.6667C13.7909 10.6667 12 12.4576 12 14.6667C12 16.8759 13.7909 18.6667 16 18.6667Z" stroke="#1400FF" stroke-width="2.75" stroke-linecap="round" stroke-linejoin="round"/>
<path d="M23.5426 22.2094L17.8853 27.8668C17.3852 28.3663 16.7074 28.6469 16.0006 28.6469C15.2938 28.6469 14.6159 28.3663 14.1159 27.8668L8.45726 22.2094C6.96555 20.7177 5.9497 18.817 5.53817 16.7479C5.12664 14.6788 5.33791 12.5341 6.14526 10.5851C6.95261 8.63603 8.31979 6.97015 10.0739 5.79811C11.828 4.62606 13.8903 4.00049 15.9999 4.00049C18.1096 4.00049 20.1718 4.62606 21.9259 5.79811C23.6801 6.97015 25.0472 8.63603 25.8546 10.5851C26.6619 12.5341 26.8732 14.6788 26.4617 16.7479C26.0501 18.817 25.0343 20.7177 23.5426 22.2094V22.2094Z" stroke="#1400FF" stroke-width="2.75" stroke-linecap="round" stroke-linejoin="round"/>
</svg>
